<?xml version="1.0" encoding="UTF-8"?>
<!DOCTYPE svg PUBLIC "-//W3C//DTD SVG 1.1//EN" "http://www.w3.org/Graphics/SVG/1.1/DTD/svg11.dtd">
<svg xmlns="http://www.w3.org/2000/svg" version="1.1" width="758px" height="329px" style="shape-rendering:geometricPrecision; text-rendering:geometricPrecision; image-rendering:optimizeQuality; fill-rule:evenodd; clip-rule:evenodd" xmlns:xlink="http://www.w3.org/1999/xlink">
<g><path style="opacity:1" fill="#6ac0e3" d="M 153.5,82.5 C 150.495,84.2994 147.162,84.9661 143.5,84.5C 142.8,80.2022 142.467,75.8689 142.5,71.5C 134.021,69.9376 125.688,68.2709 117.5,66.5C 110.058,64.9656 102.391,64.1322 94.5,64C 96.8213,61.595 96.1546,59.9284 92.5,59C 100.844,58.5735 109.177,58.0735 117.5,57.5C 126.063,58.3437 134.563,59.6771 143,61.5C 147.562,60.5679 152.062,59.4012 156.5,58C 140.613,52.038 124.447,46.8714 108,42.5C 91.2618,47.0804 74.7618,52.2471 58.5,58C 61.2916,58.5423 63.9583,59.3756 66.5,60.5C 67.6354,62.2132 69.302,62.8799 71.5,62.5C 71.7399,65.5788 71.4066,68.5788 70.5,71.5C 68.9793,71.8797 67.3126,72.0464 65.5,72C 64.9288,73.2051 64.2621,74.3717 63.5,75.5C 62.6816,72.8929 62.1816,70.2263 62,67.5C 60.6012,66.7734 59.1012,66.2734 57.5,66C 56.1667,65 56.1667,64 57.5,63C 55.5497,61.5039 53.5497,61.3373 51.5,62.5C 52.1667,63.1667 52.8333,63.8333 53.5,64.5C 53.1667,64.8333 52.8333,65.1667 52.5,65.5C 47.8168,62.6275 43.3168,59.6275 39,56.5C 38.8333,56.1667 38.6667,55.8333 38.5,55.5C 41.9036,54.2403 44.5703,52.907 46.5,51.5C 66.7251,44.87 87.0584,38.2033 107.5,31.5C 130.131,38.7657 152.797,45.9323 175.5,53C 179.382,54.7516 180.382,57.5849 178.5,61.5C 170.02,64.2715 161.52,66.9382 153,69.5C 152.294,73.8868 152.46,78.2201 153.5,82.5 Z M 117.5,57.5 C 102.09,55.8819 86.7571,57.2152 71.5,61.5C 69.8653,60.9537 68.1986,60.6204 66.5,60.5C 63.9583,59.3756 61.2916,58.5423 58.5,58C 74.7618,52.2471 91.2618,47.0804 108,42.5C 124.447,46.8714 140.613,52.038 156.5,58C 152.062,59.4012 147.562,60.5679 143,61.5C 134.563,59.6771 126.063,58.3437 117.5,57.5 Z"/></g>
<g><path style="opacity:1" fill="#6bbde0" d="M 46.5,51.5 C 44.5703,52.907 41.9036,54.2403 38.5,55.5C 38.6667,55.8333 38.8333,56.1667 39,56.5C 43.3168,59.6275 47.8168,62.6275 52.5,65.5C 52.8333,65.1667 53.1667,64.8333 53.5,64.5C 52.8333,63.8333 52.1667,63.1667 51.5,62.5C 53.5497,61.3373 55.5497,61.5039 57.5,63C 56.1667,64 56.1667,65 57.5,66C 59.1012,66.2734 60.6012,66.7734 62,67.5C 62.1816,70.2263 62.6816,72.8929 63.5,75.5C 64.2621,74.3717 64.9288,73.2051 65.5,72C 67.3126,72.0464 68.9793,71.8797 70.5,71.5C 71.4066,68.5788 71.7399,65.5788 71.5,62.5C 69.302,62.8799 67.6354,62.2132 66.5,60.5C 68.1986,60.6204 69.8653,60.9537 71.5,61.5C 86.7571,57.2152 102.09,55.8819 117.5,57.5C 109.177,58.0735 100.844,58.5735 92.5,59C 96.1546,59.9284 96.8213,61.595 94.5,64C 102.391,64.1322 110.058,64.9656 117.5,66.5C 101.911,65.9179 86.5775,67.5846 71.5,71.5C 71.2833,75.7051 70.6167,79.7051 69.5,83.5C 66.5701,84.299 63.5701,84.6323 60.5,84.5C 60.8333,79.1667 61.1667,73.8333 61.5,68.5C 55.7922,67.323 50.1255,65.9897 44.5,64.5C 44.6263,67.595 46.293,69.4283 49.5,70C 54.3364,74.1885 56.003,79.3552 54.5,85.5C 51.3915,85.7359 48.3915,85.4025 45.5,84.5C 46.2104,81.1148 45.0437,78.7814 42,77.5C 39.2082,78.9303 37.7082,81.2636 37.5,84.5C 34.8333,84.1667 32.1667,83.8333 29.5,83.5C 29.7678,81.901 29.4345,80.5676 28.5,79.5C 29.5911,75.0691 31.9245,71.4024 35.5,68.5C 31.5186,57.8227 35.1853,52.156 46.5,51.5 Z"/></g>
<g><path style="opacity:0.91" fill="#2f648c" d="M 153.5,82.5 C 153.5,83.1667 153.5,83.8333 153.5,84.5C 150.064,85.7815 146.731,85.7815 143.5,84.5C 147.162,84.9661 150.495,84.2994 153.5,82.5 Z"/></g>
<g><path style="opacity:0.925" fill="#274868" d="M 69.5,83.5 C 69.5,83.8333 69.5,84.1667 69.5,84.5C 61.4433,86.3648 53.4433,86.6981 45.5,85.5C 45.5,85.1667 45.5,84.8333 45.5,84.5C 48.3915,85.4025 51.3915,85.7359 54.5,85.5C 56.4352,84.8505 58.4352,84.5172 60.5,84.5C 63.5701,84.6323 66.5701,84.299 69.5,83.5 Z"/></g>
<g><path style="opacity:1" fill="#0e1c3b" d="M 131.5,95.5 C 129.26,94.7356 126.927,93.9023 124.5,93C 123.663,91.9887 123.33,90.8221 123.5,89.5C 126.214,89.75 128.881,89.9167 131.5,90C 131.47,88.5707 131.803,87.0707 132.5,85.5C 135.962,84.5184 139.629,84.185 143.5,84.5C 146.731,85.7815 150.064,85.7815 153.5,84.5C 160.149,85.3797 166.816,85.5464 173.5,85C 181.877,83.1518 190.211,81.4852 198.5,80C 199,80.5 199.5,81 200,81.5C 201.029,90.3099 200.363,98.9766 198,107.5C 196.11,111.961 193.276,112.628 189.5,109.5C 189.167,108.5 188.833,107.5 188.5,106.5C 189.688,101.562 190.355,96.5625 190.5,91.5C 182.183,93.8185 173.683,95.1519 165,95.5C 153.773,94.2457 142.606,94.2457 131.5,95.5 Z"/></g>
<g><path style="opacity:0.992" fill="#0d1c3c" d="M 16.5,80.5 C 20.1468,79.2029 23.8135,79.5362 27.5,81.5C 28.2975,81.0431 28.6309,80.3764 28.5,79.5C 29.4345,80.5676 29.7678,81.901 29.5,83.5C 32.1667,83.8333 34.8333,84.1667 37.5,84.5C 40.1667,84.8333 42.8333,85.1667 45.5,85.5C 53.4433,86.6981 61.4433,86.3648 69.5,84.5C 83.2387,83.5248 95.572,87.1914 106.5,95.5C 114.567,90.4608 123.234,87.1275 132.5,85.5C 131.803,87.0707 131.47,88.5707 131.5,90C 128.881,89.9167 126.214,89.75 123.5,89.5C 123.33,90.8221 123.663,91.9887 124.5,93C 126.927,93.9023 129.26,94.7356 131.5,95.5C 122.847,98.324 114.514,101.991 106.5,106.5C 99.081,102.124 91.4144,98.2905 83.5,95C 80.1832,94.5017 76.8499,94.335 73.5,94.5C 69.4831,93.7469 65.3164,93.0802 61,92.5C 58.8151,93.7585 56.6484,93.7585 54.5,92.5C 53.0589,93.304 51.5589,93.9706 50,94.5C 41.2238,92.4336 32.3905,90.767 23.5,89.5C 23.2592,92.8973 22.5925,96.2306 21.5,99.5C 21.9281,102.412 22.5947,105.245 23.5,108C 23.1667,109.167 22.8333,110.333 22.5,111.5C 21.914,111.291 21.414,110.957 21,110.5C 18.4468,103.115 16.9468,95.4482 16.5,87.5C 16.1147,84.6292 17.1147,82.4626 19.5,81C 18.552,80.5172 17.552,80.3505 16.5,80.5 Z"/></g>
<g><path style="opacity:0.991" fill="#0e1b37" d="M 16.5,80.5 C 17.552,80.3505 18.552,80.5172 19.5,81C 17.1147,82.4626 16.1147,84.6292 16.5,87.5C 16.9468,95.4482 18.4468,103.115 21,110.5C 21.414,110.957 21.914,111.291 22.5,111.5C 22.8333,110.333 23.1667,109.167 23.5,108C 22.5947,105.245 21.9281,102.412 21.5,99.5C 22.5925,96.2306 23.2592,92.8973 23.5,89.5C 32.3905,90.767 41.2238,92.4336 50,94.5C 51.5589,93.9706 53.0589,93.304 54.5,92.5C 56.6484,93.7585 58.8151,93.7585 61,92.5C 65.3164,93.0802 69.4831,93.7469 73.5,94.5C 57.2745,96.5917 41.2745,95.5917 25.5,91.5C 25.8315,99.4937 28.1649,106.827 32.5,113.5C 29.9079,119.088 26.4079,119.755 22,115.5C 17.4667,105.504 14.9667,95.0037 14.5,84C 14.8082,82.5405 15.4749,81.3739 16.5,80.5 Z"/></g>
<g><path style="opacity:1" fill="#0e1d3c" d="M 103.5,166.5 C 103.408,157.994 103.741,149.494 104.5,141C 101.909,135.814 99.5756,130.481 97.5,125C 94.1137,124.119 91.7804,125.286 90.5,128.5C 76.3142,115.7 60.9808,114.2 44.5,124C 26.9672,141.961 27.3005,159.628 45.5,177C 48.3911,178.274 51.0578,179.774 53.5,181.5C 50.8822,181.221 48.3822,180.554 46,179.5C 44.8904,181.037 43.3904,181.703 41.5,181.5C 41.5,182.5 41.5,183.5 41.5,184.5C 43.604,184.201 45.604,184.534 47.5,185.5C 49.1619,187.652 51.1619,189.318 53.5,190.5C 37.0753,185.906 26.9086,175.24 23,158.5C 20.307,131.875 31.807,115.042 57.5,108C 84.3583,106.175 100.858,118.341 107,144.5C 108.066,152.314 106.899,159.647 103.5,166.5 Z"/></g>
<g><path style="opacity:0.32" fill="#7fb8cc" d="M 299.5,140.5 C 307.316,139.508 315.316,139.174 323.5,139.5C 325.5,139.5 327.5,139.5 329.5,139.5C 329.5,133.5 329.5,127.5 329.5,121.5C 301.5,121.5 273.5,121.5 245.5,121.5C 245.5,124.167 245.5,126.833 245.5,129.5C 245.036,133.502 245.702,137.169 247.5,140.5C 246.5,140.5 245.5,140.5 244.5,140.5C 244.5,133.833 244.5,127.167 244.5,120.5C 273.167,120.5 301.833,120.5 330.5,120.5C 330.5,127.167 330.5,133.833 330.5,140.5C 320.167,140.5 309.833,140.5 299.5,140.5 Z"/></g>
<g><path style="opacity:1" fill="#68c3e7" d="M 599.5,215.5 C 597.844,214.854 596.177,214.187 594.5,213.5C 593.558,213.608 592.725,213.941 592,214.5C 585.247,213.686 578.414,213.186 571.5,213C 569.941,212.02 568.274,211.187 566.5,210.5C 570.303,209.158 573.97,209.491 577.5,211.5C 579.569,211.176 579.902,210.342 578.5,209C 580.833,208.667 583.167,208.333 585.5,208C 581.87,207.051 578.537,205.551 575.5,203.5C 578.043,202.942 580.71,202.942 583.5,203.5C 585.167,203.167 586.833,202.833 588.5,202.5C 588.376,201.893 588.043,201.56 587.5,201.5C 594.8,200.209 600.133,196.209 603.5,189.5C 604.514,186.611 605.848,183.778 607.5,181C 605.736,175.454 604.902,169.62 605,163.5C 602.541,160.9 600.041,160.9 597.5,163.5C 594.893,161.767 592.56,159.767 590.5,157.5C 591.999,155.198 593.332,155.531 594.5,158.5C 594.998,155.407 595.998,152.574 597.5,150C 594.721,149.851 594.221,149.017 596,147.5C 598.087,148.397 600.254,149.064 602.5,149.5C 603.331,138.341 603.831,127.007 604,115.5C 607.75,114.85 611.584,114.517 615.5,114.5C 619.595,114.542 623.429,115.208 627,116.5C 627.63,150.367 627.63,184.367 627,218.5C 619.914,219.646 612.747,219.812 605.5,219C 604.736,216.931 604.236,214.764 604,212.5C 602.871,214.141 601.371,215.141 599.5,215.5 Z"/></g>
<g><path style="opacity:1" fill="#67c1e6" d="M 323.5,139.5 C 322.047,138.175 322.381,137.342 324.5,137C 323.975,136.308 323.308,135.808 322.5,135.5C 316.35,136.13 310.517,136.463 305,136.5C 304.5,136 304,135.5 303.5,135C 308.489,134.501 313.489,134.334 318.5,134.5C 318.66,132.801 318.494,131.134 318,129.5C 313.667,129.833 309.333,130.167 305,130.5C 303.579,127.378 301.913,127.044 300,129.5C 299.161,128.376 297.994,127.709 296.5,127.5C 293.366,128.241 290.366,129.241 287.5,130.5C 285.306,130.046 283.473,129.046 282,127.5C 281.5,127.833 281,128.167 280.5,128.5C 282.645,132.543 285.812,135.21 290,136.5C 291.981,128.256 295.815,127.256 301.5,133.5C 299.922,134.298 298.256,134.798 296.5,135C 293.513,138.208 294.18,140.041 298.5,140.5C 298.667,163.169 298.5,185.836 298,208.5C 297.586,208.043 297.086,207.709 296.5,207.5C 295.833,186.5 295.167,165.5 294.5,144.5C 293.178,167.202 293.178,189.869 294.5,212.5C 294.113,213.72 293.28,214.387 292,214.5C 288.813,214.402 285.646,214.402 282.5,214.5C 280.931,213.286 280.098,211.619 280,209.5C 278.989,210.337 277.822,210.67 276.5,210.5C 276.333,188.164 276.5,165.831 277,143.5C 277.938,140.277 280.105,138.944 283.5,139.5C 283.657,138.127 283.49,136.793 283,135.5C 280.872,135.927 278.705,135.427 276.5,134C 275.663,132.989 275.33,131.822 275.5,130.5C 273.856,130.286 272.356,130.62 271,131.5C 270.667,130.833 270.333,130.167 270,129.5C 266,129.5 262,129.5 258,129.5C 257.033,130.678 256.533,132.011 256.5,133.5C 261.467,134.329 266.467,134.829 271.5,135C 263.783,135.436 256.116,135.77 248.5,136C 251.466,132.096 250.466,129.929 245.5,129.5C 245.5,126.833 245.5,124.167 245.5,121.5C 273.5,121.5 301.5,121.5 329.5,121.5C 329.5,127.5 329.5,133.5 329.5,139.5C 327.5,139.5 325.5,139.5 323.5,139.5 Z"/></g>
<g><path style="opacity:0.954" fill="#72bcdc" d="M 441.5,219.5 C 441.5,184.833 441.5,150.167 441.5,115.5C 434.49,115.668 427.49,116.001 420.5,116.5C 420.5,118.167 420.5,119.833 420.5,121.5C 426.12,121.005 427.12,123.005 423.5,127.5C 422.083,144.833 421.75,162.166 422.5,179.5C 421.615,191.509 421.115,203.509 421,215.5C 422.792,217.628 424.958,218.961 427.5,219.5C 424.881,219.768 422.381,219.435 420,218.5C 419.333,184.167 419.333,149.833 420,115.5C 427.413,114.519 434.913,114.186 442.5,114.5C 442.832,149.671 442.498,184.671 441.5,219.5 Z"/></g>
<g><path style="opacity:1" fill="#68c1e6" d="M 441.5,219.5 C 436.833,219.5 432.167,219.5 427.5,219.5C 424.958,218.961 422.792,217.628 421,215.5C 421.115,203.509 421.615,191.509 422.5,179.5C 421.75,162.166 422.083,144.833 423.5,127.5C 427.12,123.005 426.12,121.005 420.5,121.5C 420.5,119.833 420.5,118.167 420.5,116.5C 427.49,116.001 434.49,115.668 441.5,115.5C 441.5,150.167 441.5,184.833 441.5,219.5 Z"/></g>
<g><path style="opacity:1" fill="#0d1c3c" d="M 196.5,239.5 C 193.439,242.097 191.273,245.43 190,249.5C 189.5,247.667 188.333,246.5 186.5,246C 188.271,241.694 189.271,236.861 189.5,231.5C 193.947,215.839 194.113,200.172 190,184.5C 167.934,197.516 148.268,194.516 131,175.5C 117.826,153.38 120.659,133.547 139.5,116C 161.362,102.667 181.195,105.167 199,123.5C 208.488,136.766 210.488,151.099 205,166.5C 202.562,170.377 200.395,174.377 198.5,178.5C 204.35,199.097 203.683,219.43 196.5,239.5 Z M 158.5,117.5 C 182.093,116.095 195.426,127.095 198.5,150.5C 194.844,173.985 181.178,184.485 157.5,182C 139.418,176.008 131.252,163.508 133,144.5C 135.939,130.065 144.439,121.065 158.5,117.5 Z"/></g>
<g><path style="opacity:1" fill="#6bbfe4" d="M 323.5,139.5 C 315.316,139.174 307.316,139.508 299.5,140.5C 299.5,166.833 299.5,193.167 299.5,219.5C 291.5,219.5 283.5,219.5 275.5,219.5C 275.5,193.167 275.5,166.833 275.5,140.5C 266.167,140.5 256.833,140.5 247.5,140.5C 245.702,137.169 245.036,133.502 245.5,129.5C 250.466,129.929 251.466,132.096 248.5,136C 256.116,135.77 263.783,135.436 271.5,135C 266.467,134.829 261.467,134.329 256.5,133.5C 256.533,132.011 257.033,130.678 258,129.5C 262,129.5 266,129.5 270,129.5C 270.333,130.167 270.667,130.833 271,131.5C 272.356,130.62 273.856,130.286 275.5,130.5C 275.33,131.822 275.663,132.989 276.5,134C 278.705,135.427 280.872,135.927 283,135.5C 283.49,136.793 283.657,138.127 283.5,139.5C 280.105,138.944 277.938,140.277 277,143.5C 276.5,165.831 276.333,188.164 276.5,210.5C 277.822,210.67 278.989,210.337 280,209.5C 280.098,211.619 280.931,213.286 282.5,214.5C 285.646,214.402 288.813,214.402 292,214.5C 293.28,214.387 294.113,213.72 294.5,212.5C 293.178,189.869 293.178,167.202 294.5,144.5C 295.167,165.5 295.833,186.5 296.5,207.5C 297.086,207.709 297.586,208.043 298,208.5C 298.5,185.836 298.667,163.169 298.5,140.5C 294.18,140.041 293.513,138.208 296.5,135C 298.256,134.798 299.922,134.298 301.5,133.5C 295.815,127.256 291.981,128.256 290,136.5C 285.812,135.21 282.645,132.543 280.5,128.5C 281,128.167 281.5,127.833 282,127.5C 283.473,129.046 285.306,130.046 287.5,130.5C 290.366,129.241 293.366,128.241 296.5,127.5C 297.994,127.709 299.161,128.376 300,129.5C 301.913,127.044 303.579,127.378 305,130.5C 309.333,130.167 313.667,129.833 318,129.5C 318.494,131.134 318.66,132.801 318.5,134.5C 313.489,134.334 308.489,134.501 303.5,135C 304,135.5 304.5,136 305,136.5C 310.517,136.463 316.35,136.13 322.5,135.5C 323.308,135.808 323.975,136.308 324.5,137C 322.381,137.342 322.047,138.175 323.5,139.5 Z"/></g>
<g><path style="opacity:1" fill="#6dbfe1" d="M 159.5,135.5 C 167.548,135.547 172.214,139.547 173.5,147.5C 172.563,151.283 170.229,152.783 166.5,152C 164.513,150.681 163.346,148.848 163,146.5C 156.063,144.393 154.896,140.726 159.5,135.5 Z"/></g>
<g><path style="opacity:1" fill="#6ac0e4" d="M 400.5,159.5 C 399.504,159.586 398.671,159.252 398,158.5C 395.306,159.883 392.473,160.383 389.5,160C 388.636,157.929 387.303,156.262 385.5,155C 390.151,153.765 390.484,152.098 386.5,150C 384.076,149.403 382.243,150.237 381,152.5C 378.097,150.677 375.097,149.01 372,147.5C 370.989,148.337 369.822,148.67 368.5,148.5C 368.592,144.929 366.926,143.762 363.5,145C 364.516,145.519 365.182,146.353 365.5,147.5C 364.453,149.056 363.786,150.723 363.5,152.5C 364.833,152.5 366.167,152.5 367.5,152.5C 367.5,151.5 367.5,150.5 367.5,149.5C 368.552,149.351 369.552,149.517 370.5,150C 371.218,151.987 372.218,153.821 373.5,155.5C 378.019,155.759 381.685,157.593 384.5,161C 382.137,161.589 381.137,163.089 381.5,165.5C 374.264,159.85 366.264,158.516 357.5,161.5C 354.587,162.24 351.753,163.24 349,164.5C 345.113,164.986 343.28,163.319 343.5,159.5C 342.127,159.657 340.793,159.49 339.5,159C 342.651,157.902 345.651,156.402 348.5,154.5C 348.333,154.167 348.167,153.833 348,153.5C 345.401,153.633 342.734,153.633 340,153.5C 339.323,155.885 338.489,158.551 337.5,161.5C 337.199,165.177 338.866,166.843 342.5,166.5C 342.5,167.5 342.5,168.5 342.5,169.5C 340.167,169.5 337.833,169.5 335.5,169.5C 335.785,167.712 335.452,166.045 334.5,164.5C 333.686,166.766 333.186,169.1 333,171.5C 331.842,171.998 331.009,172.831 330.5,174C 332.166,180.349 331.832,186.516 329.5,192.5C 331.048,195.823 332.381,199.157 333.5,202.5C 327.111,193.933 324.945,184.266 327,173.5C 332.559,153.287 345.893,142.621 367,141.5C 381.335,141.913 392.501,147.913 400.5,159.5 Z"/></g>
<g><path style="opacity:0.996" fill="#6ac0e4" d="M 602.5,149.5 C 600.254,149.064 598.087,148.397 596,147.5C 594.221,149.017 594.721,149.851 597.5,150C 595.998,152.574 594.998,155.407 594.5,158.5C 593.332,155.531 591.999,155.198 590.5,157.5C 592.56,159.767 594.893,161.767 597.5,163.5C 600.041,160.9 602.541,160.9 605,163.5C 604.902,169.62 605.736,175.454 607.5,181C 605.848,183.778 604.514,186.611 603.5,189.5C 606.512,167.001 597.178,158.501 575.5,164C 566.71,172.657 565.21,182.491 571,193.5C 574.961,199.23 580.461,201.896 587.5,201.5C 588.043,201.56 588.376,201.893 588.5,202.5C 586.833,202.833 585.167,203.167 583.5,203.5C 580.71,202.942 578.043,202.942 575.5,203.5C 578.537,205.551 581.87,207.051 585.5,208C 583.167,208.333 580.833,208.667 578.5,209C 579.902,210.342 579.569,211.176 577.5,211.5C 573.97,209.491 570.303,209.158 566.5,210.5C 568.274,211.187 569.941,212.02 571.5,213C 578.414,213.186 585.247,213.686 592,214.5C 592.725,213.941 593.558,213.608 594.5,213.5C 596.177,214.187 597.844,214.854 599.5,215.5C 586.916,222.171 574.249,222.004 561.5,215C 549.723,206.778 544.056,195.445 544.5,181C 545.376,156.622 558.043,143.455 582.5,141.5C 590.305,141.65 596.972,144.317 602.5,149.5 Z"/></g>
<g><path style="opacity:1" fill="#6dbee1" d="M 59.5,137.5 C 67.5004,137.327 72.1671,141.161 73.5,149C 72.6632,154.085 69.9965,155.418 65.5,153C 64.1387,151.416 63.472,149.582 63.5,147.5C 56.5377,146.255 55.2043,142.921 59.5,137.5 Z"/></g>
<g><path style="opacity:1" fill="#6bbfe4" d="M 154.5,124.5 C 173.528,122.702 184.528,131.202 187.5,150C 184.557,168.941 173.557,177.275 154.5,175C 141.065,170.23 134.899,160.73 136,146.5C 139.49,142.412 142.49,142.745 145,147.5C 145.856,162.033 153.356,167.866 167.5,165C 177.011,159.466 179.511,151.633 175,141.5C 171.625,136.481 166.958,133.815 161,133.5C 155.995,134.668 151.328,136.668 147,139.5C 142.464,137.69 141.464,134.69 144,130.5C 147.351,128.079 150.851,126.079 154.5,124.5 Z"/></g>
<g><path style="opacity:1" fill="#69c1e5" d="M 493.5,141.5 C 522.61,142.442 536.777,157.442 536,186.5C 535.333,187.167 534.667,187.833 534,188.5C 515.936,187.575 497.77,187.575 479.5,188.5C 485.112,199.636 494.112,203.803 506.5,201C 511.143,199.276 515.477,197.276 519.5,195C 523.725,198.722 527.392,202.888 530.5,207.5C 526.553,212.476 521.553,215.976 515.5,218C 496.407,223.629 479.573,219.795 465,206.5C 456.951,196.145 454.285,184.478 457,171.5C 462.73,153.565 474.897,143.565 493.5,141.5 Z M 495.5,159.5 C 505.026,159.59 511.359,164.09 514.5,173C 502.838,173.5 491.171,173.667 479.5,173.5C 481.45,164.879 486.783,160.212 495.5,159.5 Z"/></g>
<g><path style="opacity:1" fill="#69bfe4" d="M 53.5,124.5 C 75.9685,122.804 86.8018,133.137 86,155.5C 78.6739,174.572 65.5073,180.072 46.5,172C 38.5002,166.168 34.6668,158.334 35,148.5C 37.5281,144.915 40.5281,144.582 44,147.5C 45.2032,161.665 52.7032,167.499 66.5,165C 75.2083,160.216 78.0417,153.049 75,143.5C 70.6524,135.085 63.8191,132.252 54.5,135C 51.4619,136.849 48.4619,138.682 45.5,140.5C 41.4754,139.783 39.9754,137.45 41,133.5C 44.2991,129.118 48.4657,126.118 53.5,124.5 Z"/></g>
<g><path style="opacity:1" fill="#69bee1" d="M 129.5,191.5 C 126.595,193.756 124.928,196.756 124.5,200.5C 121.863,203.989 119.363,207.655 117,211.5C 115.192,213.396 113.025,213.896 110.5,213C 107.943,210.108 105.776,206.941 104,203.5C 103.329,202.748 102.496,202.414 101.5,202.5C 102.686,200.806 102.519,199.139 101,197.5C 100.124,195.365 98.6237,194.031 96.5,193.5C 96.205,191.577 95.3717,189.91 94,188.5C 93.3333,186.5 93.3333,184.5 94,182.5C 98.8333,177.667 103.667,172.833 108.5,168C 110.695,166.627 113.029,166.294 115.5,167C 121.027,172.527 126.527,178.027 132,183.5C 132.612,186.611 131.779,189.277 129.5,191.5 Z M 111.5,178.5 C 115.72,179.717 118.72,182.383 120.5,186.5C 118.521,191.123 116.021,195.456 113,199.5C 110.167,195.167 107.333,190.833 104.5,186.5C 106.856,183.814 109.189,181.147 111.5,178.5 Z"/></g>
<g><path style="opacity:1" fill="#6ac1e6" d="M 400.5,159.5 C 405.628,168.027 407.628,177.36 406.5,187.5C 387.757,188.007 369.091,188.007 350.5,187.5C 348.97,188.067 347.47,188.733 346,189.5C 345.503,192.146 345.336,194.813 345.5,197.5C 342.657,197.083 339.99,196.083 337.5,194.5C 336.652,192.591 336.318,190.591 336.5,188.5C 335.5,188.5 334.5,188.5 333.5,188.5C 333.523,183.126 334.023,177.793 335,172.5C 336.796,173.767 338.629,173.767 340.5,172.5C 341.386,173.325 341.719,174.325 341.5,175.5C 340.167,175.5 338.833,175.5 337.5,175.5C 337.081,180.736 337.081,186.069 337.5,191.5C 339.833,191.5 342.167,191.5 344.5,191.5C 344.373,188.755 345.54,186.755 348,185.5C 348.414,185.957 348.914,186.291 349.5,186.5C 366.456,185.681 383.456,185.181 400.5,185C 400.043,184.586 399.709,184.086 399.5,183.5C 383.107,183.147 366.941,182.147 351,180.5C 350.667,180.833 350.333,181.167 350,181.5C 348.833,180 347.667,178.5 346.5,177C 348.544,176.502 349.878,175.335 350.5,173.5C 361.853,173.832 373.186,173.499 384.5,172.5C 383.68,170.026 382.68,167.693 381.5,165.5C 381.137,163.089 382.137,161.589 384.5,161C 381.685,157.593 378.019,155.759 373.5,155.5C 372.218,153.821 371.218,151.987 370.5,150C 369.552,149.517 368.552,149.351 367.5,149.5C 367.5,150.5 367.5,151.5 367.5,152.5C 366.167,152.5 364.833,152.5 363.5,152.5C 363.786,150.723 364.453,149.056 365.5,147.5C 365.182,146.353 364.516,145.519 363.5,145C 366.926,143.762 368.592,144.929 368.5,148.5C 369.822,148.67 370.989,148.337 372,147.5C 375.097,149.01 378.097,150.677 381,152.5C 382.243,150.237 384.076,149.403 386.5,150C 390.484,152.098 390.151,153.765 385.5,155C 387.303,156.262 388.636,157.929 389.5,160C 392.473,160.383 395.306,159.883 398,158.5C 398.671,159.252 399.504,159.586 400.5,159.5 Z"/></g>
<g><path style="opacity:1" fill="#0e1d3d" d="M 103.5,166.5 C 95.8978,183.078 82.8978,191.745 64.5,192.5C 60.5527,192.637 56.886,191.97 53.5,190.5C 51.1619,189.318 49.1619,187.652 47.5,185.5C 45.604,184.534 43.604,184.201 41.5,184.5C 41.5,183.5 41.5,182.5 41.5,181.5C 43.3904,181.703 44.8904,181.037 46,179.5C 48.3822,180.554 50.8822,181.221 53.5,181.5C 73.4431,185.815 87.6098,178.815 96,160.5C 99.203,148.917 97.3696,138.251 90.5,128.5C 91.7804,125.286 94.1137,124.119 97.5,125C 99.5756,130.481 101.909,135.814 104.5,141C 103.741,149.494 103.408,157.994 103.5,166.5 Z"/></g>
<g><path style="opacity:1" fill="#68c1e5" d="M 357.5,161.5 C 354.133,164.529 351.467,168.196 349.5,172.5C 349.624,173.107 349.957,173.44 350.5,173.5C 349.878,175.335 348.544,176.502 346.5,177C 347.667,178.5 348.833,180 350,181.5C 350.333,181.167 350.667,180.833 351,180.5C 366.941,182.147 383.107,183.147 399.5,183.5C 399.709,184.086 400.043,184.586 400.5,185C 383.456,185.181 366.456,185.681 349.5,186.5C 348.914,186.291 348.414,185.957 348,185.5C 345.54,186.755 344.373,188.755 344.5,191.5C 342.167,191.5 339.833,191.5 337.5,191.5C 337.081,186.069 337.081,180.736 337.5,175.5C 338.833,175.5 340.167,175.5 341.5,175.5C 341.719,174.325 341.386,173.325 340.5,172.5C 338.629,173.767 336.796,173.767 335,172.5C 334.023,177.793 333.523,183.126 333.5,188.5C 334.5,188.5 335.5,188.5 336.5,188.5C 336.318,190.591 336.652,192.591 337.5,194.5C 339.99,196.083 342.657,197.083 345.5,197.5C 345.336,194.813 345.503,192.146 346,189.5C 347.47,188.733 348.97,188.067 350.5,187.5C 352.021,195.187 356.688,199.687 364.5,201C 373.896,202.735 382.229,200.568 389.5,194.5C 393.5,198.833 397.5,203.167 401.5,207.5C 396.469,213.355 390.135,217.188 382.5,219C 363.457,223.369 347.29,218.536 334,204.5C 333.536,203.906 333.369,203.239 333.5,202.5C 332.381,199.157 331.048,195.823 329.5,192.5C 331.832,186.516 332.166,180.349 330.5,174C 331.009,172.831 331.842,171.998 333,171.5C 333.186,169.1 333.686,166.766 334.5,164.5C 335.452,166.045 335.785,167.712 335.5,169.5C 337.833,169.5 340.167,169.5 342.5,169.5C 342.5,168.5 342.5,167.5 342.5,166.5C 338.866,166.843 337.199,165.177 337.5,161.5C 338.489,158.551 339.323,155.885 340,153.5C 342.734,153.633 345.401,153.633 348,153.5C 348.167,153.833 348.333,154.167 348.5,154.5C 345.651,156.402 342.651,157.902 339.5,159C 340.793,159.49 342.127,159.657 343.5,159.5C 343.28,163.319 345.113,164.986 349,164.5C 351.753,163.24 354.587,162.24 357.5,161.5 Z"/></g>
<g><path style="opacity:0.996" fill="#0c1b3a" d="M 129.5,191.5 C 156.873,195.404 176.373,209.737 188,234.5C 188.232,233.263 188.732,232.263 189.5,231.5C 189.271,236.861 188.271,241.694 186.5,246C 188.333,246.5 189.5,247.667 190,249.5C 191.273,245.43 193.439,242.097 196.5,239.5C 192.221,251.74 185.221,262.073 175.5,270.5C 172.865,267.592 172.865,264.592 175.5,261.5C 175.253,260.287 174.586,259.62 173.5,259.5C 176.904,255.035 180.071,250.369 183,245.5C 184.914,242.702 185.914,239.702 186,236.5C 183.952,238.787 181.785,238.954 179.5,237C 167.566,215.355 149.233,203.189 124.5,200.5C 124.928,196.756 126.595,193.756 129.5,191.5 Z"/></g>
<g><path style="opacity:1" fill="#69c0e4" d="M 652.5,142.5 C 656.715,144.436 661.381,145.103 666.5,144.5C 666.333,158.171 666.5,171.837 667,185.5C 667.34,191.159 669.34,195.493 673,198.5C 673.399,198.272 673.565,197.938 673.5,197.5C 680.997,201.799 687.997,201.132 694.5,195.5C 694.289,199.985 691.956,201.985 687.5,201.5C 687.5,202.833 687.5,204.167 687.5,205.5C 676.833,206.5 676.833,207.5 687.5,208.5C 687.5,209.5 687.5,210.5 687.5,211.5C 680.575,211.78 673.742,211.114 667,209.5C 661.411,209.3 661.244,210.467 666.5,213C 664.833,213.333 663.167,213.667 661.5,214C 667.824,218.297 674.824,219.63 682.5,218C 682.167,217.667 681.833,217.333 681.5,217C 676.825,216.203 672.159,215.37 667.5,214.5C 674.134,213.503 680.8,213.17 687.5,213.5C 687.281,214.675 687.614,215.675 688.5,216.5C 689.731,215.349 689.731,214.183 688.5,213C 691.785,210.229 695.285,208.729 699,208.5C 700.667,209.5 702,210.833 703,212.5C 708.741,211.525 714.575,211.192 720.5,211.5C 720.5,188.833 720.5,166.167 720.5,143.5C 720.81,142.262 721.31,142.262 722,143.5C 722.667,168.5 722.667,193.5 722,218.5C 715.248,219.645 708.414,219.811 701.5,219C 700.726,216.595 700.226,214.095 700,211.5C 687.563,221.595 674.063,223.095 659.5,216C 651.881,211.272 647.381,204.438 646,195.5C 645.5,177.836 645.333,160.17 645.5,142.5C 647.833,142.5 650.167,142.5 652.5,142.5 Z"/></g>
<g><path style="opacity:0.141" fill="#7bbad5" d="M 652.5,142.5 C 657.565,142.219 662.565,142.552 667.5,143.5C 668.333,158.822 668.833,174.156 669,189.5C 669.738,192.648 671.238,195.315 673.5,197.5C 673.565,197.938 673.399,198.272 673,198.5C 669.34,195.493 667.34,191.159 667,185.5C 666.5,171.837 666.333,158.171 666.5,144.5C 661.381,145.103 656.715,144.436 652.5,142.5 Z"/></g>
<g><path style="opacity:1" fill="#68c1e6" d="M 720.5,143.5 C 720.5,166.167 720.5,188.833 720.5,211.5C 714.575,211.192 708.741,211.525 703,212.5C 702,210.833 700.667,209.5 699,208.5C 695.285,208.729 691.785,210.229 688.5,213C 689.731,214.183 689.731,215.349 688.5,216.5C 687.614,215.675 687.281,214.675 687.5,213.5C 680.8,213.17 674.134,213.503 667.5,214.5C 672.159,215.37 676.825,216.203 681.5,217C 681.833,217.333 682.167,217.667 682.5,218C 674.824,219.63 667.824,218.297 661.5,214C 663.167,213.667 664.833,213.333 666.5,213C 661.244,210.467 661.411,209.3 667,209.5C 673.742,211.114 680.575,211.78 687.5,211.5C 687.5,210.5 687.5,209.5 687.5,208.5C 676.833,207.5 676.833,206.5 687.5,205.5C 687.5,204.167 687.5,202.833 687.5,201.5C 691.956,201.985 694.289,199.985 694.5,195.5C 696.778,192.603 698.278,189.27 699,185.5C 699.333,171.5 699.667,157.5 700,143.5C 706.833,142.184 713.666,142.184 720.5,143.5 Z"/></g>
<g><path style="opacity:0.993" fill="#0c1b3b" d="M 96.5,193.5 C 98.6237,194.031 100.124,195.365 101,197.5C 102.519,199.139 102.686,200.806 101.5,202.5C 75.4182,205.76 57.2516,219.427 47,243.5C 45.9571,246.757 45.4571,250.09 45.5,253.5C 42.9895,250.384 42.9895,247.051 45.5,243.5C 44.6072,240.916 44.2739,238.249 44.5,235.5C 42.8762,235.36 41.7096,236.027 41,237.5C 39.9268,241.553 39.5934,245.553 40,249.5C 38.3708,248.435 37.2042,247.101 36.5,245.5C 37.3482,243.591 37.6816,241.591 37.5,239.5C 48.9213,213.761 68.5879,198.428 96.5,193.5 Z"/></g>
<g><path style="opacity:1" fill="#0c1b3c" d="M 37.5,239.5 C 37.6816,241.591 37.3482,243.591 36.5,245.5C 37.2042,247.101 38.3708,248.435 40,249.5C 39.5934,245.553 39.9268,241.553 41,237.5C 41.7096,236.027 42.8762,235.36 44.5,235.5C 44.2739,238.249 44.6072,240.916 45.5,243.5C 42.9895,247.051 42.9895,250.384 45.5,253.5C 55.5673,266.538 68.234,276.205 83.5,282.5C 85.2665,285.087 85.9332,287.753 85.5,290.5C 84.3112,291.429 82.9778,291.762 81.5,291.5C 77.9368,290.718 74.6035,289.384 71.5,287.5C 70.0978,284.791 68.7645,281.958 67.5,279C 64.829,278.167 62.4957,278.667 60.5,280.5C 58.9382,280.267 57.6049,279.6 56.5,278.5C 56.1667,277.167 55.8333,277.167 55.5,278.5C 54.5,278.167 53.8333,277.5 53.5,276.5C 27.1842,252.848 17.0175,223.515 23,188.5C 27.0769,184.141 30.2436,184.808 32.5,190.5C 29.4041,207.305 31.0708,223.638 37.5,239.5 Z"/></g>
<g><path style="opacity:0.431" fill="#1a6794" d="M 71.5,287.5 C 71.5,288.167 71.5,288.833 71.5,289.5C 69.4731,286.814 67.1398,284.314 64.5,282C 63.2068,281.51 61.8734,281.343 60.5,281.5C 60.5,281.167 60.5,280.833 60.5,280.5C 62.4957,278.667 64.829,278.167 67.5,279C 68.7645,281.958 70.0978,284.791 71.5,287.5 Z"/></g>
<g><path style="opacity:0.999" fill="#6cbee2" d="M 38.5,277.5 C 40.8273,277.247 42.8273,277.914 44.5,279.5C 47.1604,285.963 48.6604,292.63 49,299.5C 46.0596,303.287 43.2263,303.12 40.5,299C 38.1175,292.972 36.6175,286.805 36,280.5C 37.045,279.627 37.8783,278.627 38.5,277.5 Z"/></g>
<g><path style="opacity:0.761" fill="#407fa9" d="M 160.5,281.5 C 158.712,281.215 157.045,281.548 155.5,282.5C 153.674,286.037 151.674,289.37 149.5,292.5C 149.833,291.167 150.167,289.833 150.5,288.5C 151.734,285.636 153.068,282.803 154.5,280C 156.989,279.059 158.989,279.559 160.5,281.5 Z"/></g>
<g><path style="opacity:0.99" fill="#0d1c3c" d="M 173.5,259.5 C 174.586,259.62 175.253,260.287 175.5,261.5C 172.865,264.592 172.865,267.592 175.5,270.5C 171.357,274.733 167.023,278.733 162.5,282.5C 161.833,282.167 161.167,281.833 160.5,281.5C 158.989,279.559 156.989,279.059 154.5,280C 153.068,282.803 151.734,285.636 150.5,288.5C 127.78,298.753 104.78,299.753 81.5,291.5C 82.9778,291.762 84.3112,291.429 85.5,290.5C 85.9332,287.753 85.2665,285.087 83.5,282.5C 118.293,293.23 148.293,285.563 173.5,259.5 Z"/></g>
<g><path style="opacity:1" fill="#6bbfe3" d="M 160.5,281.5 C 161.167,281.833 161.833,282.167 162.5,282.5C 161.193,289.23 159.193,295.73 156.5,302C 153.669,303.917 151.169,303.417 149,300.5C 148.398,297.779 148.565,295.113 149.5,292.5C 151.674,289.37 153.674,286.037 155.5,282.5C 157.045,281.548 158.712,281.215 160.5,281.5 Z"/></g>
<g><path style="opacity:1" fill="#6cbee1" d="M 168.5,278.5 C 172.754,277.954 175.088,279.788 175.5,284C 174.204,289.555 172.704,295.055 171,300.5C 166.616,304.565 163.449,303.732 161.5,298C 162.762,291.044 165.095,284.544 168.5,278.5 Z"/></g>
<g><path style="opacity:1" fill="#6dc0e3" d="M 181.5,278.5 C 185.223,278.223 187.556,279.89 188.5,283.5C 187.101,288.862 185.601,294.196 184,299.5C 181.49,304.255 178.49,304.588 175,300.5C 175.207,293.994 176.541,287.661 179,281.5C 179.698,280.309 180.531,279.309 181.5,278.5 Z"/></g>
<g><path style="opacity:1" fill="#6abee3" d="M 53.5,276.5 C 53.8333,277.5 54.5,278.167 55.5,278.5C 55.8333,278.5 56.1667,278.5 56.5,278.5C 58.1626,284.482 59.8292,290.482 61.5,296.5C 60.0165,300.748 57.3499,301.915 53.5,300C 49.5166,293.082 47.8499,285.749 48.5,278C 50.0249,276.991 51.6916,276.491 53.5,276.5 Z"/></g>
<g><path style="opacity:0.986" fill="#6bc0e3" d="M 60.5,281.5 C 61.8734,281.343 63.2068,281.51 64.5,282C 67.1398,284.314 69.4731,286.814 71.5,289.5C 73.2451,292.885 73.7451,296.552 73,300.5C 68.0145,303.012 64.6811,301.345 63,295.5C 61.9346,291.47 60.7679,287.47 59.5,283.5C 59.5427,282.584 59.8761,281.917 60.5,281.5 Z"/></g>
</svg>
